# xmcd CD database file
# Generated: Thu Jun 27 17:58:00 2002 by KSCD
# 
# Track frame offsets:
#       150
#       43670
#       70282
#       100802
#       133845
#       149490
#       161430
#       199422
#       218587
#       228882
#       235575
#       253755
#       286720
#       294642
#       303657
#
# Disc length: 4312 seconds
#
# Revision: 1
# Processed by: cddbd v1.4PL0 Copyright (c) Steve Scherf et al.
# Submitted via: Kscd 1.3.3
#
DISCID=e110d60f
DTITLE=Strictly - 10 years
DYEAR=1900
DGENRE=
TTITLE0=1
TTITLE1=
TTITLE2=
TTITLE3=
TTITLE4=
TTITLE5=
TTITLE6=
TTITLE7=
TTITLE8=
TTITLE9=
TTITLE10=
TTITLE11=
TTITLE12=
TTITLE13=
TTITLE14=
EXTD=
EXTT0=
EXTT1=
EXTT2=
EXTT3=
EXTT4=
EXTT5=
EXTT6=
EXTT7=
EXTT8=
EXTT9=
EXTT10=
EXTT11=
EXTT12=
EXTT13=
EXTT14=
PLAYORDER=
